<svg xmlns="http://www.w3.org/2000/svg" viewBox="0 0 1280 840" font-family="Arial, Helvetica, sans-serif">
  <rect width="1280" height="840" rx="14" fill="#ffffff"/>
  <rect width="1280" height="64" rx="14" fill="#211f20"/>
  <rect y="30" width="1280" height="34" fill="#211f20"/>
  <circle cx="36" cy="32" r="7" fill="#e2483d"/>
  <circle cx="60" cy="32" r="7" fill="#f5a623"/>
  <circle cx="84" cy="32" r="7" fill="#1e9e63"/>
  <rect x="360" y="18" width="560" height="28" rx="14" fill="#3a383a"/>
  <text x="640" y="38" text-anchor="middle" font-size="15" fill="#b9b7b9">smilecrest.app</text>
  <rect x="48" y="104" width="150" height="30" rx="6" fill="#12a4b8"/>
  <text x="64" y="125" font-size="16" font-weight="bold" fill="#ffffff">SmileCrest</text>
  <rect x="920" y="104" width="120" height="30" rx="15" fill="#211f20"/>
  <rect x="1060" y="104" width="172" height="30" rx="15" fill="#12a4b8"/>
  <text x="80" y="260" font-size="58" font-weight="bold" fill="#211f20">Straighter smiles, booked online.</text>
  <text x="80" y="308" font-size="24" fill="#77747a">Treatment pages and reviews that fill the chair.</text>
  <rect x="80" y="350" width="180" height="48" rx="24" fill="#12a4b8"/>
  <rect x="276" y="350" width="180" height="48" rx="24" fill="none" stroke="#211f20" stroke-width="2"/>
  
  <g transform="translate(80, 460)">
    <rect width="268" height="220" rx="12" fill="#f3f3f1"/>
    <rect x="20" y="20" width="90" height="26" rx="13" fill="#12a4b8" opacity="0.25"/>
    <text x="20" y="88" font-size="21" font-weight="bold" fill="#211f20">Book online</text>
    <rect x="20" y="112" width="228" height="10" rx="5" fill="#dddbd7"/>
    <rect x="20" y="132" width="180" height="10" rx="5" fill="#dddbd7"/>
    <rect x="20" y="152" width="204" height="10" rx="5" fill="#dddbd7"/>
    <rect x="20" y="180" width="110" height="22" rx="11" fill="#211f20"/>
  </g>
  <g transform="translate(372, 460)">
    <rect width="268" height="220" rx="12" fill="#f3f3f1"/>
    <rect x="20" y="20" width="90" height="26" rx="13" fill="#12a4b8" opacity="0.47"/>
    <text x="20" y="88" font-size="21" font-weight="bold" fill="#211f20">4.9 stars</text>
    <rect x="20" y="112" width="228" height="10" rx="5" fill="#dddbd7"/>
    <rect x="20" y="132" width="180" height="10" rx="5" fill="#dddbd7"/>
    <rect x="20" y="152" width="204" height="10" rx="5" fill="#dddbd7"/>
    <rect x="20" y="180" width="110" height="22" rx="11" fill="#211f20"/>
  </g>
  <g transform="translate(664, 460)">
    <rect width="268" height="220" rx="12" fill="#f3f3f1"/>
    <rect x="20" y="20" width="90" height="26" rx="13" fill="#12a4b8" opacity="0.69"/>
    <text x="20" y="88" font-size="21" font-weight="bold" fill="#211f20">Invisalign</text>
    <rect x="20" y="112" width="228" height="10" rx="5" fill="#dddbd7"/>
    <rect x="20" y="132" width="180" height="10" rx="5" fill="#dddbd7"/>
    <rect x="20" y="152" width="204" height="10" rx="5" fill="#dddbd7"/>
    <rect x="20" y="180" width="110" height="22" rx="11" fill="#211f20"/>
  </g>
  <g transform="translate(956, 460)">
    <rect width="268" height="220" rx="12" fill="#f3f3f1"/>
    <rect x="20" y="20" width="90" height="26" rx="13" fill="#12a4b8" opacity="0.91"/>
    <text x="20" y="88" font-size="21" font-weight="bold" fill="#211f20">Emergency</text>
    <rect x="20" y="112" width="228" height="10" rx="5" fill="#dddbd7"/>
    <rect x="20" y="132" width="180" height="10" rx="5" fill="#dddbd7"/>
    <rect x="20" y="152" width="204" height="10" rx="5" fill="#dddbd7"/>
    <rect x="20" y="180" width="110" height="22" rx="11" fill="#211f20"/>
  </g>
  <rect x="80" y="720" width="1152" height="70" rx="12" fill="#211f20"/>
  <circle cx="130" cy="755" r="18" fill="#12a4b8"/>
  <rect x="170" y="738" width="300" height="12" rx="6" fill="#4a484a"/>
  <rect x="170" y="760" width="220" height="12" rx="6" fill="#3a383a"/>
  <rect x="1020" y="740" width="180" height="32" rx="16" fill="#12a4b8"/>
</svg>